<?xml version="1.0" encoding="UTF-8"?>
<svg id="Layer_2" data-name="Layer 2" xmlns="http://www.w3.org/2000/svg" viewBox="0 0 63.13 63.13">
  <defs>
    <style>
      .cls-1 {
        fill: #e0ad5a;
      }

      .cls-2 {
        fill: #221e53;
        stroke: #e0ad5a;
        stroke-miterlimit: 10;
      }
    </style>
  </defs>
  <g id="Layer_1-2" data-name="Layer 1">
    <circle class="cls-2" cx="31.57" cy="31.57" r="31.07"/>
    <g>
      <path class="cls-1" d="m22.22,30.02c.22.2.44.4.67.58l2.28,1.48,11.23,7.31h.01c2.82,1.72,4.7,4.82,4.7,8.36,1.92-2.26,3.08-5.19,3.08-8.39,0-1.54-.27-3.01-.76-4.38-.9-2.52-2.64-4.65-4.84-6.17l-6.29-4.37-6.5-4.38c-1.52-.87-2.85-2.05-3.88-3.46-.62-.83-1.14-1.75-1.54-2.72-1.34,2-2.13,4.41-2.13,7,0,2.75.89,5.3,2.39,7.37.47.64.99,1.23,1.56,1.77Z"/>
      <path class="cls-1" d="m44.73,31.88c-2.06-4.51-9.31-8.8-14.11-11.63l-.17-.1c-.5-.29-.97-.57-1.4-.84-2.51-1.51-4.37-3.03-5.54-4.53-.86-1.11-.72-2.72.33-3.67,1.91-1.64,4.31-2.44,7.32-2.44,3.3,0,6.39,1.3,8.7,3.65.56.57.87,1.33.87,2.13v4.59c0,.57.35.63.5.63.35,0,.63-.28.63-.63v-10.16c0-.32-.26-.59-.59-.59-.16,0-.55.07-.55.68v2.44c0,.19-.16.31-.31.31-.05,0-.13-.01-.2-.09-2.43-2.39-5.65-3.7-9.06-3.7-3.15,0-5.78.88-7.81,2.62-1.34,1.22-1.52,3.27-.42,4.68,1.23,1.57,3.16,3.15,5.74,4.71.46.27.95.57,1.47.87l.11.07c4.72,2.79,11.85,7,13.81,11.3l.03.06-.08-.09v.35s.09-.25.09-.25c.88,1.7,1.93,4.36,1.93,7.34,0,4.53-2.02,8.75-5.55,11.59-2.63,2.12-5.94,3.28-9.32,3.28-2.76,0-5.45-.76-7.79-2.2-2.15-1.33-3.9-3.16-5.13-5.33.42.2.9.32,1.4.32,1.8,0,3.26-1.46,3.26-3.26s-1.46-3.26-3.26-3.26-3.26,1.46-3.26,3.26c0,.35.06.69.16,1.01.06.2.16.48.33.87,1.28,2.92,3.4,5.35,6.12,7.03,2.45,1.51,5.28,2.31,8.18,2.31,3.55,0,7.02-1.22,9.78-3.45,3.7-2.98,5.83-7.41,5.83-12.17,0-3.15-1.1-5.93-2.04-7.72Z"/>
      <path class="cls-1" d="m20.31,38.49c2.48,0,4.51,2.02,4.51,4.51,0-2.48,2.02-4.51,4.51-4.51-2.48,0-4.51-2-4.51-4.51,0,2.5-2.02,4.51-4.51,4.51Z"/>
    </g>
  </g>
</svg>