<?xml version="1.0" encoding="UTF-8"?>
<svg id="Layer_2" data-name="Layer 2" xmlns="http://www.w3.org/2000/svg" viewBox="0 0 123.9 110.69">
  <defs>
    <style>
      .cls-1 {
        fill: #e0ad5a;
      }
    </style>
  </defs>
  <g id="Layer_1-2" data-name="Layer 1">
    <g>
      <path class="cls-1" d="m46.05,36.28c.36.33.72.65,1.1.96l3.75,2.44,18.44,12h.02v.02c4.63,2.81,7.72,7.89,7.72,13.7,3.16-3.72,5.06-8.52,5.06-13.78,0-2.52-.44-4.95-1.25-7.19-1.48-4.13-4.34-7.63-7.94-10.13l-10.33-7.18-10.67-7.19c-2.5-1.43-4.67-3.37-6.37-5.68-1.02-1.37-1.87-2.87-2.52-4.47-2.21,3.29-3.49,7.24-3.49,11.49,0,4.52,1.45,8.7,3.92,12.1.76,1.05,1.62,2.02,2.56,2.91Z"/>
      <path class="cls-1" d="m83.02,39.32c-3.39-7.41-15.29-14.44-23.16-19.1l-.28-.17c-.82-.48-1.59-.94-2.31-1.37-4.12-2.48-7.18-4.98-9.1-7.44-1.42-1.82-1.18-4.46.54-6.03,3.14-2.69,7.07-4,12.02-4,5.42,0,10.5,2.13,14.29,5.99.92.94,1.43,2.18,1.43,3.5v7.53c0,.94.57,1.04.82,1.04.57,0,1.04-.47,1.04-1.04V1.55c0-.53-.43-.96-.96-.96-.27,0-.9.11-.9,1.12v4c0,.32-.26.51-.51.51-.09,0-.22-.02-.34-.14-3.99-3.92-9.28-6.07-14.87-6.07-5.18,0-9.49,1.45-12.82,4.31-2.19,2-2.5,5.38-.69,7.69,2.01,2.58,5.19,5.18,9.43,7.73.75.45,1.56.93,2.41,1.43l.18.11c7.75,4.58,19.45,11.5,22.68,18.56l.04.1-.13-.15.02.57.13-.41c1.45,2.8,3.17,7.16,3.17,12.06,0,7.44-3.32,14.37-9.12,19.03-4.32,3.48-9.75,5.39-15.3,5.39-4.53,0-8.95-1.25-12.79-3.62-3.54-2.18-6.4-5.18-8.43-8.75.7.33,1.47.52,2.29.52,2.96,0,5.36-2.4,5.36-5.36s-2.4-5.36-5.36-5.36-5.36,2.4-5.36,5.36c0,.58.09,1.13.26,1.65.1.33.27.78.55,1.42,2.1,4.8,5.58,8.79,10.05,11.55,4.03,2.49,8.67,3.8,13.43,3.8,5.83,0,11.53-2.01,16.06-5.66,6.08-4.89,9.57-12.17,9.57-19.97,0-5.18-1.81-9.74-3.34-12.67Z"/>
      <path class="cls-1" d="m42.92,50.19c4.08,0,7.4,3.32,7.4,7.4,0-4.08,3.32-7.4,7.4-7.4-4.08,0-7.4-3.29-7.4-7.4,0,4.11-3.32,7.4-7.4,7.4Z"/>
    </g>
    <g>
      <path class="cls-1" d="m0,104.82l2.67-1.7.17.2c-.28.66-.43,1.39-.43,2.2s.14,1.55.41,2.24.69,1.27,1.23,1.73,1.24.69,2.07.69c.49,0,.95-.12,1.39-.35.43-.24.81-.55,1.13-.94.32-.39.57-.84.75-1.35s.27-1.04.27-1.59c0-.85-.21-1.6-.64-2.24s-.96-1.23-1.6-1.77-1.33-1.06-2.07-1.56c-.74-.5-1.43-1.03-2.07-1.59-.64-.56-1.18-1.18-1.6-1.87-.43-.69-.64-1.5-.64-2.42,0-1.06.22-1.97.67-2.72.44-.76.99-1.37,1.64-1.84.65-.47,1.35-.82,2.1-1.04.75-.22,1.43-.33,2.06-.33.96,0,1.83.17,2.61.5.77.33,1.44.73,1.98,1.19.55.46.97.96,1.28,1.47.3.52.45.97.45,1.35l-1.87,2.98-.31-.11c.17-.77.23-1.57.17-2.4s-.23-1.57-.52-2.25c-.29-.68-.71-1.24-1.25-1.67-.54-.43-1.21-.65-2.03-.65-.44,0-.87.11-1.32.33-.44.22-.84.52-1.19.92-.35.4-.63.88-.85,1.46-.22.58-.33,1.22-.33,1.94,0,.76.21,1.42.64,1.98s.96,1.1,1.6,1.59,1.34.98,2.1,1.47c.76.49,1.46,1.04,2.1,1.64.64.61,1.18,1.3,1.6,2.07.43.78.64,1.7.64,2.78,0,.95-.21,1.77-.62,2.47-.42.7-.95,1.28-1.59,1.73-.64.45-1.35.79-2.11,1.01-.77.22-1.5.33-2.2.33-.79,0-1.55-.14-2.25-.43-.71-.28-1.35-.68-1.93-1.21-.58-.52-1.06-1.14-1.46-1.86-.4-.72-.68-1.51-.85-2.38Z"/>
      <path class="cls-1" d="m14.97,89.2h6.24c-.42.08-.75.31-1.01.7-.25.39-.38.86-.38,1.4v11.57c0,1.04.15,1.95.44,2.74.29.79.68,1.45,1.16,1.99.48.54,1.03.95,1.63,1.22.6.27,1.22.41,1.84.41.53,0,1.09-.13,1.67-.38.59-.25,1.13-.63,1.63-1.13s.91-1.12,1.23-1.84.48-1.56.48-2.51v-12.05c0-.55-.13-1.02-.38-1.4-.26-.39-.59-.62-1.01-.7h3.35c-.42.08-.75.31-1.01.7-.26.39-.38.86-.38,1.4v12.3c0,1.19-.22,2.23-.65,3.11-.44.88-1,1.61-1.69,2.2s-1.47,1.03-2.35,1.32-1.77.44-2.68.44-1.71-.17-2.52-.51c-.81-.34-1.53-.81-2.15-1.42-.62-.6-1.12-1.32-1.5-2.15-.38-.83-.57-1.75-.57-2.75v-12.53c0-.55-.13-1.02-.38-1.4-.25-.39-.59-.62-1.01-.7Z"/>
      <path class="cls-1" d="m32.72,89.2h6.24c-.42.08-.69.3-.81.68-.12.38-.09.85.1,1.42l5.39,16.7c.13-.7.35-1.38.67-2.03.31-.65.67-1.31,1.08-1.97.41-.66.83-1.34,1.26-2.04.43-.7.84-1.43,1.21-2.2s.67-1.58.91-2.45.35-1.81.35-2.83c0-.74-.14-1.4-.43-2-.28-.6-.63-1.11-1.03-1.55-.41-.43-.85-.8-1.32-1.09-.47-.29-.9-.51-1.28-.64h4.11c.4.62.68,1.28.84,1.96.16.68.24,1.35.24,2.01,0,1.29-.18,2.5-.54,3.63-.36,1.13-.8,2.21-1.32,3.22-.52,1.01-1.07,1.97-1.64,2.86-.58.9-1.08,1.76-1.52,2.58-.44.82-.76,1.61-.96,2.35-.21.75-.2,1.48.03,2.2h-3.46l-6.04-18.74c-.21-.6-.5-1.08-.88-1.43-.38-.35-.78-.56-1.19-.64Z"/>
      <path class="cls-1" d="m67.08,110.01c.42-.06.75-.28,1.01-.68.26-.4.38-.87.38-1.42v-16.62c0-.55-.13-1.02-.38-1.4-.25-.39-.59-.62-1.01-.7h6.78c1.46,0,2.74.08,3.86.23,1.11.15,2.06.41,2.83.76.77.36,1.36.84,1.76,1.45.4.61.6,1.37.6,2.3,0,.83-.19,1.54-.57,2.11-.38.58-.85,1.07-1.42,1.47-.57.41-1.19.75-1.86,1.03-.67.28-1.29.55-1.86.81s-1.04.51-1.42.78c-.38.27-.57.58-.57.94,0,.27.09.55.26.87s.38.63.62.96c.25.33.51.65.79.95.28.3.55.58.79.82.51.53,1.05,1.07,1.62,1.62.57.55,1.11,1.08,1.62,1.59.64.62,1.29,1.12,1.93,1.49.64.37,1.17.58,1.59.64h-7.23c.42-.06.62-.23.61-.51,0-.28-.16-.56-.44-.82l-1.73-1.73c-.47-.47-.87-.89-1.19-1.26-.32-.37-.58-.71-.78-1.03-.2-.32-.34-.63-.43-.94-.09-.3-.13-.61-.13-.94,0-.53.15-1,.45-1.42s.68-.82,1.12-1.22c.44-.4.93-.79,1.45-1.18.52-.39,1-.83,1.45-1.32.44-.49.82-1.04,1.12-1.64.3-.6.45-1.31.45-2.13,0-.74-.13-1.37-.38-1.89-.25-.52-.61-.95-1.06-1.28-.45-.33-.99-.57-1.62-.71s-1.3-.21-2.04-.21h-2.13v18.12c0,.55.13,1.02.38,1.42.26.4.59.62,1.01.68h-6.24Z"/>
      <path class="cls-1" d="m85.09,110.01c.42-.06.75-.28,1.01-.68.25-.4.38-.87.38-1.42v-16.62c0-.55-.13-1.02-.38-1.4-.26-.39-.59-.62-1.01-.7h4.85c0,1.4.15,2.64.44,3.71.29,1.08.68,2.04,1.18,2.89.49.85,1.06,1.61,1.7,2.28.64.67,1.31,1.29,2,1.86.69.57,1.38,1.1,2.06,1.6.68.5,1.31,1.02,1.9,1.56.58.54,1.1,1.11,1.54,1.72.44.61.76,1.29.95,2.04v-15.57c0-.55-.13-1.02-.38-1.4-.26-.39-.6-.62-1.04-.7h3.37c-.42.08-.75.31-1.01.7-.25.39-.38.86-.38,1.4v16.62c0,.55.13,1.02.38,1.42.26.4.59.62,1.01.68h-4.85c0-1.42-.26-2.63-.79-3.63s-1.2-1.91-2-2.74c-.8-.82-1.68-1.59-2.64-2.31-.95-.72-1.87-1.5-2.74-2.34-.87-.84-1.64-1.79-2.3-2.86-.66-1.07-1.1-2.34-1.3-3.81v15.59c0,.55.13,1.02.38,1.42.26.4.6.62,1.04.68h-3.37Z"/>
      <path class="cls-1" d="m54.56,106.74c0-1.68-1.37-3.05-3.05-3.05,1.68,0,3.05-1.35,3.05-3.05,0,1.69,1.37,3.05,3.05,3.05-1.68,0-3.05,1.37-3.05,3.05Z"/>
      <path class="cls-1" d="m112.52,106.74c0-1.68-1.37-3.05-3.05-3.05,1.68,0,3.05-1.35,3.05-3.05,0,1.69,1.37,3.05,3.05,3.05-1.68,0-3.05,1.37-3.05,3.05Z"/>
      <path class="cls-1" d="m59.71,110.01h6.24c-.42-.06-.82-.28-1.21-.68-.39-.4-.68-.87-.86-1.42l-5.22-16.19c-.32-.96-.72-1.62-1.19-1.98-.47-.36-.98-.54-1.53-.54-.36,0-.76.18-1.21.52-.44.35-.82,1.04-1.12,2.06l-5.16,16.5c-.21.59-.45,1.01-.72,1.26s-.62.41-1.03.47h2.98c-.44-.06-.69-.24-.77-.55-.08-.31,0-.8.2-1.46l.13-.4,1.1-3.53s0,.01-.01.02l3.46-11.03c.21-.64.37-1.06.5-1.25.12-.19.26-.28.41-.28.19,0,.35.14.5.43s.29.64.44,1.08l2.18,6.79h0l1.37,4.25s.01.03.02.05l1.22,3.8c.19.57.22,1.04.1,1.43s-.39.61-.81.67Z"/>
      <path class="cls-1" d="m122.7,109.33c-.39-.4-.68-.87-.86-1.42l-5.22-16.19c-.32-.96-.72-1.62-1.19-1.98s-.98-.54-1.53-.54c-.36,0-.76.18-1.21.52-.44.35-.82,1.04-1.12,2.06l-5.16,16.5c-.21.59-.45,1.01-.72,1.26-.27.25-.62.41-1.04.47h2.98c-.44-.06-.69-.24-.77-.55-.08-.31,0-.8.2-1.46l.2-.62s.03-.07.04-.11h0s1-3.19,1-3.19c0,0,0,.01-.01.02l3.46-11.03c.21-.64.37-1.06.5-1.25.12-.19.26-.28.41-.28.19,0,.35.14.5.43.14.28.29.64.44,1.08l2.29,7.14h0l1.26,3.88s.02.04.02.06l1.22,3.8c.19.57.22,1.04.1,1.43s-.39.61-.81.67h6.24c-.42-.06-.82-.28-1.21-.68Z"/>
    </g>
  </g>
</svg>