<?xml version="1.0" encoding="UTF-8"?>
<svg id="Layer_2" data-name="Layer 2" xmlns="http://www.w3.org/2000/svg" viewBox="0 0 49.92 77.62">
  <defs>
    <style>
      .cls-1 {
        fill: #e0ad5a;
      }
    </style>
  </defs>
  <g id="Layer_1-2" data-name="Layer 1">
    <g>
      <path class="cls-1" d="m9.61,36.28c.36.33.72.65,1.1.96l3.75,2.44,18.44,12h.02v.02c4.63,2.81,7.72,7.89,7.72,13.7,3.16-3.72,5.06-8.52,5.06-13.78,0-2.52-.44-4.95-1.25-7.19-1.48-4.13-4.34-7.63-7.94-10.13l-10.33-7.18-10.67-7.19c-2.5-1.43-4.67-3.37-6.37-5.68-1.02-1.37-1.87-2.87-2.52-4.47-2.21,3.29-3.49,7.24-3.49,11.49,0,4.52,1.45,8.7,3.92,12.1.76,1.05,1.62,2.02,2.56,2.91Z"/>
      <path class="cls-1" d="m46.58,39.32c-3.39-7.41-15.29-14.44-23.16-19.1l-.28-.17c-.82-.48-1.59-.94-2.31-1.37-4.12-2.48-7.18-4.98-9.1-7.44-1.42-1.82-1.18-4.46.54-6.03,3.14-2.69,7.07-4,12.02-4,5.42,0,10.5,2.13,14.29,5.99.92.94,1.43,2.18,1.43,3.5v7.53c0,.94.57,1.04.82,1.04.57,0,1.04-.47,1.04-1.04V1.55c0-.53-.43-.96-.96-.96-.27,0-.9.11-.9,1.12v4c0,.32-.26.51-.51.51-.09,0-.22-.02-.34-.14-3.99-3.92-9.28-6.07-14.87-6.07-5.18,0-9.49,1.45-12.82,4.31-2.19,2-2.5,5.38-.69,7.69,2.01,2.58,5.19,5.18,9.43,7.73.75.45,1.56.93,2.41,1.43l.18.11c7.75,4.58,19.45,11.5,22.68,18.56l.04.1-.13-.15.02.57.13-.41c1.45,2.8,3.17,7.16,3.17,12.06,0,7.44-3.32,14.37-9.12,19.03-4.32,3.48-9.75,5.39-15.3,5.39-4.53,0-8.95-1.25-12.79-3.62-3.54-2.18-6.4-5.18-8.43-8.75.7.33,1.47.52,2.29.52,2.96,0,5.36-2.4,5.36-5.36s-2.4-5.36-5.36-5.36-5.36,2.4-5.36,5.36c0,.58.09,1.13.26,1.65.1.33.27.78.55,1.42,2.1,4.8,5.58,8.79,10.05,11.55,4.03,2.49,8.67,3.8,13.43,3.8,5.83,0,11.53-2.01,16.06-5.66,6.08-4.89,9.57-12.17,9.57-19.97,0-5.18-1.81-9.74-3.34-12.67Z"/>
      <path class="cls-1" d="m6.48,50.19c4.08,0,7.4,3.32,7.4,7.4,0-4.08,3.32-7.4,7.4-7.4-4.08,0-7.4-3.29-7.4-7.4,0,4.11-3.32,7.4-7.4,7.4Z"/>
    </g>
  </g>
</svg>